<?xml version="1.0" encoding="utf-8"?>
<!-- Generator: Adobe Illustrator 17.0.0, SVG Export Plug-In . SVG Version: 6.00 Build 0)  -->
<!DOCTYPE svg PUBLIC "-//W3C//DTD SVG 1.1//EN" "http://www.w3.org/Graphics/SVG/1.1/DTD/svg11.dtd">
<svg version="1.1" id="Layer_1" xmlns="http://www.w3.org/2000/svg" xmlns:xlink="http://www.w3.org/1999/xlink" x="0px" y="0px"
	 width="20px" height="20px" viewBox="1.486 1.485 20 20" enable-background="new 1.486 1.485 20 20" xml:space="preserve">
<g>
	<path fill="#FFFFFF" d="M11.486,1.607c-5.455,0-9.879,4.422-9.879,9.879c0,4.045,2.432,7.519,5.913,9.048
		c-0.028-0.69-0.005-1.518,0.172-2.268c0.19-0.802,1.271-5.382,1.271-5.382s-0.316-0.63-0.316-1.563
		c0-1.464,0.849-2.557,1.905-2.557c0.899,0,1.332,0.675,1.332,1.483c0,0.903-0.576,2.254-0.872,3.506
		c-0.248,1.048,0.525,1.902,1.559,1.902c1.871,0,3.132-2.404,3.132-5.251c0-2.165-1.458-3.785-4.11-3.785
		c-2.996,0-4.864,2.234-4.864,4.73c0,0.861,0.254,1.467,0.651,1.938c0.182,0.216,0.208,0.303,0.142,0.55
		c-0.047,0.181-0.157,0.619-0.201,0.793c-0.065,0.25-0.268,0.34-0.495,0.247c-1.38-0.563-2.023-2.074-2.023-3.774
		c0-2.806,2.367-6.171,7.06-6.171c3.771,0,6.253,2.729,6.253,5.658c0,3.875-2.154,6.77-5.33,6.77c-1.066,0-2.069-0.576-2.413-1.232
		c0,0-0.574,2.276-0.695,2.715c-0.209,0.762-0.619,1.523-0.994,2.116c0.888,0.262,1.827,0.405,2.799,0.405
		c5.455,0,9.878-4.422,9.878-9.879C21.364,6.03,16.94,1.607,11.486,1.607z"/>
</g>
</svg>
