<?xml version="1.0" encoding="utf-8"?>
<!-- Generator: Adobe Illustrator 17.0.0, SVG Export Plug-In . SVG Version: 6.00 Build 0)  -->
<!DOCTYPE svg PUBLIC "-//W3C//DTD SVG 1.1//EN" "http://www.w3.org/Graphics/SVG/1.1/DTD/svg11.dtd">
<svg version="1.1"
	 id="svg2" xmlns:sodipodi="http://sodipodi.sourceforge.net/DTD/sodipodi-0.dtd" xmlns:rdf="http://www.w3.org/1999/02/22-rdf-syntax-ns#" xmlns:svg="http://www.w3.org/2000/svg" xmlns:inkscape="http://www.inkscape.org/namespaces/inkscape" xmlns:dc="http://purl.org/dc/elements/1.1/" xmlns:cc="http://creativecommons.org/ns#" sodipodi:docname="Twitter_bird_logo_2012.svg" inkscape:version="0.48.4 r9939"
	 xmlns="http://www.w3.org/2000/svg" xmlns:xlink="http://www.w3.org/1999/xlink" x="0px" y="0px" width="24.613px" height="20px"
	 viewBox="0 0 24.613 20" enable-background="new 0 0 24.613 20" xml:space="preserve">
<sodipodi:namedview  inkscape:cy="50.181142" pagecolor="#ffffff" borderopacity="1.0" fit-margin-top="0" fit-margin-left="0" bordercolor="#666666" showgrid="false" inkscape:cx="101.29413" inkscape:zoom="3.7200571" id="base" inkscape:pageopacity="0.0" inkscape:pageshadow="2" inkscape:window-height="962" inkscape:window-width="1280" inkscape:window-maximized="1" inkscape:document-units="px" fit-margin-bottom="0" inkscape:current-layer="layer1" fit-margin-right="0" inkscape:window-y="-8" inkscape:window-x="-8">
	</sodipodi:namedview>
<g id="layer1" transform="translate(-282.32053,-396.30734)" inkscape:label="Layer 1" inkscape:groupmode="layer">
	<path id="path5" inkscape:connector-curvature="0" fill="#FFFFFF" d="M306.934,398.675c-0.905,0.402-1.879,0.673-2.9,0.795
		c1.042-0.625,1.843-1.614,2.22-2.793c-0.976,0.579-2.056,0.999-3.206,1.225c-0.921-0.981-2.233-1.594-3.685-1.594
		c-2.788,0-5.049,2.261-5.049,5.049c0,0.396,0.045,0.781,0.131,1.151c-4.196-0.211-7.917-2.221-10.407-5.275
		c-0.435,0.746-0.684,1.613-0.684,2.538c0,1.752,0.8,3.297,2.154,4.203c-0.828-0.026-1.379-0.253-2.379-0.632
		c0,0.021,0,0.042,0,0.063c0,2.446,1.832,4.487,4.142,4.951c-0.424,0.115-0.824,0.177-1.284,0.177c-0.325,0-0.619-0.032-0.927-0.091
		c0.643,2.006,2.519,3.466,4.728,3.506c-1.728,1.354-3.899,2.161-6.265,2.161c-0.408,0-0.807-0.024-1.202-0.071
		c2.234,1.433,4.89,2.269,7.741,2.269c9.287,0,14.366-7.693,14.366-14.366c0-0.219-0.005-0.437-0.014-0.653
		C305.401,400.577,306.257,399.688,306.934,398.675L306.934,398.675z"/>
</g>
</svg>
