<?xml version="1.0" encoding="utf-8"?>
<!-- Generator: Adobe Illustrator 17.0.0, SVG Export Plug-In . SVG Version: 6.00 Build 0)  -->
<!DOCTYPE svg PUBLIC "-//W3C//DTD SVG 1.1//EN" "http://www.w3.org/Graphics/SVG/1.1/DTD/svg11.dtd">
<svg version="1.1" id="Layer_1" xmlns="http://www.w3.org/2000/svg" xmlns:xlink="http://www.w3.org/1999/xlink" x="0px" y="0px"
	 width="23.901px" height="20.682px" viewBox="0 0 23.901 20.682" enable-background="new 0 0 23.901 20.682" xml:space="preserve">
<path fill="#FFFFFF" d="M23.889,4.785c-0.107,2.327-1.732,5.514-4.874,9.559c-3.25,4.225-5.999,6.338-8.248,6.338
	c-1.393,0-2.572-1.286-3.535-3.86c-0.643-2.359-1.286-4.718-1.929-7.076C4.587,7.173,3.821,5.886,3,5.886
	c-0.179,0-0.805,0.376-1.876,1.126L0,5.563c1.179-1.037,2.343-2.073,3.488-3.112c1.573-1.36,2.754-2.075,3.541-2.147
	c1.86-0.179,3.005,1.093,3.435,3.816c0.464,2.938,0.786,4.765,0.966,5.48c0.536,2.437,1.126,3.654,1.771,3.654
	c0.5,0,1.251-0.791,2.254-2.371c1.001-1.581,1.537-2.784,1.609-3.61c0.143-1.364-0.394-2.048-1.609-2.048
	c-0.573,0-1.162,0.132-1.769,0.392c1.175-3.849,3.419-5.718,6.731-5.612C22.873,0.077,24.031,1.67,23.889,4.785z"/>
</svg>
