<?xml version="1.0" encoding="utf-8"?>
<!-- Generator: Adobe Illustrator 17.0.0, SVG Export Plug-In . SVG Version: 6.00 Build 0)  -->
<!DOCTYPE svg PUBLIC "-//W3C//DTD SVG 1.1//EN" "http://www.w3.org/Graphics/SVG/1.1/DTD/svg11.dtd">
<svg version="1.1" id="Layer_1" xmlns="http://www.w3.org/2000/svg" xmlns:xlink="http://www.w3.org/1999/xlink" x="0px" y="0px"
	 width="19px" height="20px" viewBox="0 0 19 20" enable-background="new 0 0 19 20" xml:space="preserve">
<path fill-rule="evenodd" clip-rule="evenodd" fill="#231F20" d="M17,9h-1.382c0.127,0,0.201,0.882,0.201,1.413
	c0,3.393-2.75,6.082-6.143,6.082c-3.393,0-6.143-2.658-6.143-6.051C3.533,9.913,3.608,9,3.735,9H2v8.201C2,17.624,2.34,18,2.765,18
	h13.822C17.012,18,17,17.624,17,17.201V9z M17,3.576C17,3.258,16.742,3,16.423,3h-1.847C14.258,3,14,3.258,14,3.576v1.848
	C14,5.742,14.258,6,14.577,6h1.847C16.742,6,17,5.742,17,5.424V3.576z M9.676,6.45c-2.121,0-3.84,1.719-3.84,3.839
	c0,2.12,1.719,3.84,3.84,3.84s3.84-1.72,3.84-3.84C13.516,8.169,11.797,6.45,9.676,6.45 M16,20H1.996C0.724,20,0,19.241,0,17.968
	V2.61C0,1.338,0.724,0,1.996,0h14.359C17.628,0,19,1.338,19,2.61v15.358C19,19.241,17.628,20,16.356,20"/>
</svg>
