<?xml version="1.0" encoding="utf-8"?>
<!-- Generator: Adobe Illustrator 17.0.0, SVG Export Plug-In . SVG Version: 6.00 Build 0)  -->
<!DOCTYPE svg PUBLIC "-//W3C//DTD SVG 1.1//EN" "http://www.w3.org/Graphics/SVG/1.1/DTD/svg11.dtd">
<svg version="1.1" id="Layer_1" xmlns="http://www.w3.org/2000/svg" xmlns:xlink="http://www.w3.org/1999/xlink" x="0px" y="0px"
	 width="20px" height="20px" viewBox="0 0 20 20" enable-background="new 0 0 20 20" xml:space="preserve">
<path id="Blue_1_" d="M19.21,0H1.09C0.469,0,0,0.169,0,0.79v18.12C0,19.531,0.469,20,1.09,20H11v-9H9V9h2V6.806
	c0-2.631,1.444-4.063,3.791-4.063C15.915,2.742,17,2.826,17,2.864V6h-1.338C14.386,6,14,6.22,14,7.11V9h3.063l-0.396,2H14v9h5.21
	C19.83,20,20,19.531,20,18.91V0.79C20,0.169,19.83,0,19.21,0z"/>
</svg>
