<?xml version="1.0" encoding="utf-8"?>
<!-- Generator: Adobe Illustrator 17.0.0, SVG Export Plug-In . SVG Version: 6.00 Build 0)  -->
<!DOCTYPE svg PUBLIC "-//W3C//DTD SVG 1.1//EN" "http://www.w3.org/Graphics/SVG/1.1/DTD/svg11.dtd">
<svg version="1.1" id="Layer_1" xmlns="http://www.w3.org/2000/svg" xmlns:xlink="http://www.w3.org/1999/xlink" x="0px" y="0px"
	 width="20px" height="20px" viewBox="1.486 1.485 20 20" enable-background="new 1.486 1.485 20 20" xml:space="preserve">
<g>
	<path d="M11.486,1.438c-5.549,0-10.048,4.498-10.048,10.048c0,4.114,2.474,7.649,6.015,9.203c-0.028-0.702-0.005-1.544,0.175-2.307
		c0.193-0.815,1.293-5.475,1.293-5.475s-0.321-0.641-0.321-1.59c0-1.489,0.863-2.601,1.938-2.601c0.914,0,1.355,0.687,1.355,1.508
		c0,0.919-0.586,2.293-0.887,3.566c-0.252,1.066,0.535,1.935,1.586,1.935c1.904,0,3.186-2.445,3.186-5.342
		c0-2.202-1.483-3.85-4.181-3.85c-3.048,0-4.947,2.273-4.947,4.812c0,0.876,0.258,1.492,0.662,1.971
		c0.185,0.22,0.212,0.308,0.144,0.56c-0.048,0.185-0.159,0.63-0.205,0.807c-0.066,0.255-0.273,0.346-0.503,0.251
		c-1.404-0.573-2.058-2.11-2.058-3.839c0-2.855,2.408-6.277,7.182-6.277c3.836,0,6.361,2.776,6.361,5.756
		c0,3.942-2.191,6.887-5.421,6.887c-1.085,0-2.105-0.586-2.455-1.253c0,0-0.584,2.315-0.707,2.762
		c-0.213,0.775-0.63,1.549-1.011,2.152c0.904,0.267,1.858,0.412,2.848,0.412c5.549,0,10.048-4.498,10.048-10.048
		C21.533,5.936,17.034,1.438,11.486,1.438z"/>
</g>
</svg>
