<?xml version="1.0" encoding="utf-8"?>
<!-- Generator: Adobe Illustrator 17.0.0, SVG Export Plug-In . SVG Version: 6.00 Build 0)  -->
<!DOCTYPE svg PUBLIC "-//W3C//DTD SVG 1.1//EN" "http://www.w3.org/Graphics/SVG/1.1/DTD/svg11.dtd">
<svg version="1.1" id="Layer_1" xmlns="http://www.w3.org/2000/svg" xmlns:xlink="http://www.w3.org/1999/xlink" x="0px" y="0px"
	 width="20.512px" height="19.928px" viewBox="0 0 20.512 19.928" enable-background="new 0 0 20.512 19.928" xml:space="preserve">
<g>
	<path fill-rule="evenodd" clip-rule="evenodd" fill="#FFFFFF" d="M12.402,0H7.297C6.619,0,5.894,0.286,5.119,0.444
		C4.337,0.628,3.583,1.123,2.857,1.722C1.801,2.748,1.272,3.941,1.272,5.199c0,1.042,0.373,1.98,1.119,2.763
		c0.712,0.842,1.748,1.284,3.107,1.3c0.257,0,0.53-0.01,0.82-0.044c-0.048,0.134-0.1,0.284-0.156,0.443
		c-0.064,0.151-0.096,0.341-0.096,0.567c0,0.377,0.084,0.701,0.252,0.969c0.144,0.277,0.308,0.537,0.492,0.78
		c-0.596,0.017-1.344,0.092-2.245,0.225c-0.91,0.158-1.778,0.474-2.605,0.949c-0.736,0.441-1.245,0.952-1.526,1.535
		C0.145,15.269,0,15.797,0,16.271c0,0.973,0.445,1.809,1.335,2.508c0.882,0.749,2.217,1.131,4.005,1.148
		c2.136-0.033,3.77-0.546,4.903-1.538c1.092-0.959,1.638-2.059,1.638-3.301c-0.016-0.875-0.215-1.584-0.597-2.125
		c-0.406-0.533-0.878-1.021-1.416-1.463l-0.866-0.713c-0.125-0.125-0.254-0.271-0.386-0.438C8.46,10.176,8.382,9.955,8.382,9.689
		c0-0.275,0.076-0.517,0.228-0.725c0.129-0.2,0.27-0.379,0.422-0.538c0.266-0.233,0.517-0.463,0.753-0.688
		C9.998,7.513,10.2,7.267,10.39,7.001c0.388-0.55,0.589-1.283,0.605-2.2c0-0.5-0.056-0.938-0.168-1.313
		c-0.136-0.375-0.293-0.7-0.469-0.975c-0.184-0.292-0.373-0.706-0.565-0.906C9.592,1.414,9.411,1,9.251,1h1.574L12.402,0z
		 M9.603,14.391c0.423,0.483,0.634,1.05,0.634,1.7c0,0.8-0.309,1.455-0.927,1.963c-0.634,0.517-1.552,0.784-2.755,0.8
		c-1.341-0.017-2.398-0.317-3.17-0.9c-0.813-0.584-1.219-1.326-1.219-2.226c0-0.459,0.093-0.85,0.28-1.175
		c0.163-0.309,0.362-0.567,0.597-0.775c0.244-0.2,0.483-0.354,0.719-0.463c0.236-0.1,0.418-0.175,0.549-0.225
		c0.553-0.167,1.093-0.288,1.621-0.362c0.536-0.05,0.87-0.067,1-0.05c0.219,0,0.41,0.008,0.573,0.025
		C8.457,13.37,9.156,13.932,9.603,14.391z M8.775,6.849C8.713,7.192,8.574,7.526,8.358,7.851C7.91,8.311,7.35,8.553,6.678,8.578
		c-0.532,0-1.005-0.163-1.418-0.489C4.846,7.764,4.509,7.367,4.247,6.9c-0.54-1.002-0.811-1.967-0.811-2.894
		C3.42,3.304,3.605,2.67,3.992,2.102C4.45,1.559,5.025,1.279,5.717,1.262C6.24,1.279,6.703,1.433,7.105,1.726
		c0.394,0.309,0.712,0.71,0.953,1.203C8.573,3.956,8.83,4.975,8.83,5.985C8.83,6.219,8.812,6.507,8.775,6.849z"/>
	<polygon fill-rule="evenodd" clip-rule="evenodd" fill="#FFFFFF" points="20.512,8 17.512,8 17.512,5 15.512,5 15.512,8 12.512,8 
		12.512,10 15.512,10 15.512,13 17.512,13 17.512,10 20.512,10 	"/>
</g>
</svg>
