<?xml version="1.0" encoding="utf-8"?>
<!-- Generator: Adobe Illustrator 17.0.0, SVG Export Plug-In . SVG Version: 6.00 Build 0)  -->
<!DOCTYPE svg PUBLIC "-//W3C//DTD SVG 1.1//EN" "http://www.w3.org/Graphics/SVG/1.1/DTD/svg11.dtd">
<svg version="1.1" id="Layer_1" xmlns="http://www.w3.org/2000/svg" xmlns:xlink="http://www.w3.org/1999/xlink" x="0px" y="0px"
	 width="100px" height="100px" viewBox="0 0 100 100" enable-background="new 0 0 100 100" xml:space="preserve">
<path fill="#FFFFFF" d="M88.895,11.105c-14.807-14.807-38.812-14.807-53.619,0C21.91,24.47,20.614,45.328,31.377,60.153
	L-0.001,91.531l8.466,8.466L39.843,68.62c14.825,10.767,35.686,9.471,49.052-3.896C103.702,49.917,103.702,25.912,88.895,11.105z
	 M84.662,60.492c-12.469,12.468-32.684,12.468-45.153,0c-12.468-12.469-12.468-32.685,0-45.153
	c12.469-12.468,32.685-12.469,45.153,0S97.13,48.022,84.662,60.492z"/>
</svg>
