<?xml version="1.0" encoding="utf-8"?>
<!-- Generator: Adobe Illustrator 17.0.0, SVG Export Plug-In . SVG Version: 6.00 Build 0)  -->
<!DOCTYPE svg PUBLIC "-//W3C//DTD SVG 1.1//EN" "http://www.w3.org/Graphics/SVG/1.1/DTD/svg11.dtd">
<svg version="1.1" id="Layer_1" xmlns="http://www.w3.org/2000/svg" xmlns:xlink="http://www.w3.org/1999/xlink" x="0px" y="0px"
	 width="535.037px" height="113.546px" viewBox="0 0 535.037 113.546" enable-background="new 0 0 535.037 113.546"
	 xml:space="preserve">
<g>
	<polygon points="105.666,0.369 86.143,0.369 53.371,85.766 53.012,85.766 20.229,0.369 0,0.369 0,113.379 2.691,113.379 
		2.682,4.664 3.041,4.664 45.224,113.526 87.573,3.558 87.933,3.558 87.876,113.379 105.655,113.379 	"/>
	<polygon points="534.962,0.517 517.287,0.517 517.287,54.652 458.228,54.652 458.228,0.517 440.533,0.517 440.533,113.526 
		458.228,113.489 458.228,56.864 517.287,56.864 517.25,113.546 535.037,113.546 	"/>
	<polygon points="421.384,0.517 339.691,0.517 339.691,113.546 428.111,113.546 428.111,111.296 357.386,111.296 357.386,54.026 
		396.74,53.952 396.74,51.814 357.386,51.796 357.386,2.766 421.384,2.766 	"/>
	<path d="M319.71-0.019L301.886,0c0,0,0.035,61.915,0,66.781c-0.074,14.12-2.986,24.663-8.295,33.069
		c-4.848,7.594-12.017,11.391-21.549,11.391c-9.621,0-22.984-3.521-28.533-10.6l-5.346-0.018
		c9.217,8.607,20.461,12.922,33.713,12.922c13.07,0,24.074-4.627,33.105-13.918c8.977-9.289,14.729-18.561,14.729-34.708
		C319.711,60.33,319.71-0.019,319.71-0.019"/>
	<path d="M183.302,0.166c-6.914,0-13.844,1.438-20.754,4.332c-6.941,2.894-13.171,6.893-18.701,11.944
		c-5.53,5.087-10.045,11.06-13.577,17.953c-3.502,6.912-5.251,14.414-5.251,22.524c0,7.317,1.438,14.396,4.35,21.235
		c2.892,6.855,6.957,12.902,12.128,18.1c5.214,5.234,11.381,9.4,18.522,12.572c7.135,3.133,14.93,4.719,23.282,4.719
		c8.156,0,15.787-1.623,22.883-4.885c7.09-3.244,13.254-7.502,18.525-12.775c5.232-5.271,9.361-11.316,12.385-18.1
		c3.004-6.82,4.516-13.75,4.516-20.866c0-8.11-1.641-15.612-4.939-22.524c-3.299-6.894-7.686-12.866-13.141-17.953
		c-5.484-5.051-11.693-9.051-18.709-11.944C197.855,1.605,190.693,0.166,183.302,0.166 M183.302,111.387
		c-7.254,0-13.344-1.105-18.248-3.336c-4.923-2.23-8.941-5.621-12.054-10.174c-3.144-4.572-5.374-10.268-6.72-17.068
		c-1.317-6.802-2.009-14.747-2.009-23.889c0-7.004,0.498-13.751,1.52-20.312c0.995-6.544,2.941-12.368,5.788-17.492
		c2.838-5.125,6.794-9.198,11.881-12.276c5.077-3.023,11.686-4.553,19.843-4.553c8.156,0,14.773,1.529,19.85,4.553
		c5.088,3.078,9.053,7.151,11.908,12.276c2.85,5.124,4.766,10.948,5.779,17.492c0.996,6.562,1.512,13.309,1.512,20.312
		c0,9.143-0.672,17.087-2.01,23.889c-1.354,6.801-3.564,12.496-6.709,17.068c-3.115,4.553-7.178,7.943-12.146,10.174
		C196.527,110.282,190.462,111.387,183.302,111.387"/>
</g>
</svg>
