<?xml version="1.0" encoding="utf-8"?>
<!-- Generator: Adobe Illustrator 17.0.0, SVG Export Plug-In . SVG Version: 6.00 Build 0)  -->
<!DOCTYPE svg PUBLIC "-//W3C//DTD SVG 1.1//EN" "http://www.w3.org/Graphics/SVG/1.1/DTD/svg11.dtd">
<svg version="1.1" id="Layer_1" xmlns="http://www.w3.org/2000/svg" xmlns:xlink="http://www.w3.org/1999/xlink" x="0px" y="0px"
	 width="98.274px" height="20.859px" viewBox="142.037 58.037 98.274 20.859" enable-background="new 142.037 58.037 98.274 20.859"
	 xml:space="preserve">
<g>
	<polygon class="mojeh-logo-test" points="161.445,58.108 157.859,58.108 151.84,73.793 151.774,73.793 145.752,58.108 142.037,58.108 142.037,78.865 
		142.531,78.865 142.529,58.897 142.595,58.897 150.343,78.892 158.122,58.694 158.188,58.694 158.177,78.865 161.443,78.865 	"/>
	<polygon class="mojeh-logo-test" points="240.296,58.135 237.05,58.135 237.05,68.078 226.202,68.078 226.202,58.135 222.952,58.135 222.952,78.892 
		226.202,78.885 226.202,68.485 237.05,68.485 237.05,78.896 240.31,78.896 	"/>
	<polygon class="mojeh-logo-test" points="219.435,58.135 204.43,58.135 204.43,78.896 220.671,78.896 220.671,78.483 207.68,78.483 207.68,67.964 
		214.908,67.95 214.908,67.557 207.68,67.554 207.68,58.548 219.435,58.548 	"/>
	<path class="mojeh-logo-test" d="M200.76,58.037l-3.274,0.003c0,0,0.006,11.372,0,12.266c-0.014,2.594-0.548,4.53-1.524,6.074
		c-0.89,1.395-2.207,2.092-3.958,2.092c-1.767,0-4.222-0.647-5.241-1.947l-0.982-0.003c1.693,1.581,3.758,2.373,6.192,2.373
		c2.401,0,4.422-0.85,6.081-2.556c1.649-1.706,2.705-3.409,2.705-6.375C200.76,69.121,200.76,58.037,200.76,58.037"/>
	<path class="mojeh-logo-test" d="M175.705,58.071c-1.27,0-2.543,0.264-3.812,0.796c-1.275,0.532-2.419,1.266-3.435,2.194
		c-1.016,0.934-1.845,2.031-2.494,3.298c-0.643,1.27-0.964,2.648-0.964,4.137c0,1.344,0.264,2.644,0.799,3.9
		c0.531,1.259,1.278,2.37,2.228,3.325c0.958,0.961,2.09,1.727,3.402,2.309c1.311,0.575,2.742,0.867,4.276,0.867
		c1.498,0,2.9-0.298,4.203-0.897c1.302-0.596,2.434-1.378,3.403-2.346c0.961-0.968,1.719-2.078,2.275-3.325
		c0.552-1.253,0.829-2.526,0.829-3.833c0-1.49-0.301-2.868-0.907-4.137c-0.606-1.266-1.412-2.363-2.414-3.298
		c-1.007-0.928-2.148-1.662-3.436-2.194C178.378,58.335,177.062,58.071,175.705,58.071 M175.705,78.499
		c-1.332,0-2.451-0.203-3.352-0.613c-0.904-0.41-1.642-1.032-2.214-1.869c-0.577-0.84-0.987-1.886-1.234-3.135
		c-0.242-1.249-0.369-2.709-0.369-4.388c0-1.286,0.091-2.526,0.279-3.731c0.183-1.202,0.54-2.272,1.063-3.213
		c0.521-0.941,1.248-1.689,2.182-2.255c0.933-0.555,2.146-0.836,3.645-0.836c1.498,0,2.713,0.281,3.646,0.836
		c0.935,0.565,1.663,1.313,2.187,2.255c0.523,0.941,0.875,2.011,1.061,3.213c0.183,1.205,0.278,2.445,0.278,3.731
		c0,1.679-0.123,3.138-0.369,4.388c-0.249,1.249-0.655,2.295-1.232,3.135c-0.572,0.836-1.318,1.459-2.231,1.869
		C178.134,78.296,177.02,78.499,175.705,78.499"/>
</g>
</svg>
